<svg xmlns="http://www.w3.org/2000/svg" xmlns:xlink="http://www.w3.org/1999/xlink" width="840" height="277.1"><rect width="840" height="277.1" rx="5" ry="5" class="a"/><svg y="0%" x="0%"><circle cx="20" cy="20" r="6" fill="#ff5f58"/><circle cx="40" cy="20" r="6" fill="#ffbd2e"/><circle cx="60" cy="20" r="6" fill="#18c132"/></svg><svg height="217.1" viewBox="0 0 80 21.71" width="800" x="15" xmlns="http://www.w3.org/2000/svg" xmlns:xlink="http://www.w3.org/1999/xlink" y="50"><style>@keyframes n{0%{transform:translateX(0)}15%{transform:translateX(-80px)}15.3%{transform:translateX(-240px)}23.9%{transform:translateX(-320px)}26.9%{transform:translateX(-400px)}28.2%{transform:translateX(-480px)}30.6%{transform:translateX(-560px)}32.1%{transform:translateX(-640px)}37.9%{transform:translateX(-720px)}40.1%{transform:translateX(-800px)}44.4%{transform:translateX(-880px)}46.3%{transform:translateX(-960px)}48.1%{transform:translateX(-1040px)}50.9%{transform:translateX(-1120px)}52.6%{transform:translateX(-1200px)}54.3%{transform:translateX(-1280px)}56.9%{transform:translateX(-1360px)}60.2%{transform:translateX(-1440px)}61.7%{transform:translateX(-1520px)}65.7%{transform:translateX(-1680px)}65.8%{transform:translateX(-1760px)}69.2%{transform:translateX(-1920px)}69.3%{transform:translateX(-2080px)}69.5%{transform:translateX(-2240px)}70%{transform:translateX(-2400px)}to{transform:translateX(-2480px)}}.a{fill:#282d35}.h{fill:#a8cc8c;font-weight:700}.h,.i,.j{white-space:pre}.i{fill:#66c2cd;font-weight:700}.j{fill:#b9c0cb}</style><g font-family="Monaco,Consolas,Menlo,'Bitstream Vera Sans Mono','Powerline Symbols',monospace" font-size="1.67"><defs><symbol id="7"><text y="1.67" class="j">foobar.py:88:1:</text><text x="16.032" y="1.67" class="j">E302</text><text x="21.042" y="1.67" class="j">expected</text><text x="30.06" y="1.67" class="j">2</text><text x="32.064" y="1.67" class="j">blank</text><text x="38.076" y="1.67" class="j">lines,</text><text x="45.09" y="1.67" class="j">found</text><text x="51.102" y="1.67" class="j">1</text></symbol><symbol id="1"><path fill="#b9c0cb" d="M0 0h1v2.171H0z"/><text y="1.67" style="white-space:pre" fill="#282d35" font-weight="700">%</text></symbol><symbol id="3"><text y="1.67" class="h">➜</text><text x="3.006" y="1.67" class="i">playground</text><text x="14.028" y="1.67" class="j">flake8</text></symbol><symbol id="4"><text y="1.67" class="h">➜</text><text x="3.006" y="1.67" class="i">playground</text><text x="14.028" y="1.67" class="j">flake8</text><text x="21.042" y="1.67" class="j">foobar.py</text></symbol><symbol id="5"><text y="1.67" class="j">foobar.py:13:1:</text><text x="16.032" y="1.67" class="j">E302</text><text x="21.042" y="1.67" class="j">expected</text><text x="30.06" y="1.67" class="j">2</text><text x="32.064" y="1.67" class="j">blank</text><text x="38.076" y="1.67" class="j">lines,</text><text x="45.09" y="1.67" class="j">found</text><text x="51.102" y="1.67" class="j">1</text></symbol><symbol id="6"><text y="1.67" class="j">foobar.py:60:80:</text><text x="17.034" y="1.67" class="j">E501</text><text x="22.044" y="1.67" class="j">line</text><text x="27.054" y="1.67" class="j">too</text><text x="31.062" y="1.67" class="j">long</text><text x="36.072" y="1.67" class="j">(84</text><text x="40.08" y="1.67" class="j">&gt;</text><text x="42.084" y="1.67" class="j">79</text><text x="45.09" y="1.67" class="j">characters)</text></symbol><symbol id="2"><text y="1.67" class="h">➜</text><text x="3.006" y="1.67" class="i">playground</text></symbol><symbol id="8"><text y="1.67" class="j">foobar.py:99:80:</text><text x="17.034" y="1.67" class="j">E501</text><text x="22.044" y="1.67" class="j">line</text><text x="27.054" y="1.67" class="j">too</text><text x="31.062" y="1.67" class="j">long</text><text x="36.072" y="1.67" class="j">(87</text><text x="40.08" y="1.67" class="j">&gt;</text><text x="42.084" y="1.67" class="j">79</text><text x="45.09" y="1.67" class="j">characters)</text></symbol><symbol id="9"><text y="1.67" class="j">foobar.py:102:80:</text><text x="18.036" y="1.67" class="j">E501</text><text x="23.046" y="1.67" class="j">line</text><text x="28.056" y="1.67" class="j">too</text><text x="32.064" y="1.67" class="j">long</text><text x="37.074" y="1.67" class="j">(83</text><text x="41.082" y="1.67" class="j">&gt;</text><text x="43.086" y="1.67" class="j">79</text><text x="46.092" y="1.67" class="j">characters)</text></symbol><symbol id="10"><text y="1.67" style="white-space:pre" fill="#e88388" font-weight="700">➜</text><text x="3.006" y="1.67" class="i">playground</text></symbol><symbol id="a"><path fill="transparent" d="M0 0h80v11H0z"/></symbol><symbol id="b"><path fill="#6f7683" d="M0 0h1.102v2.171H0z"/></symbol></defs><path class="a" d="M0 0h80v21.71H0z"/><g style="animation-duration:8.844557s;animation-iteration-count:infinite;animation-name:n;animation-timing-function:steps(1,end)"><svg width="2560"><svg><use xlink:href="#a"/><use xlink:href="#b" x="-.004"/></svg><svg x="80"><use xlink:href="#a"/><use xlink:href="#b" x="-.004" y="2.146"/><use xlink:href="#1"/></svg><svg x="160"><use xlink:href="#a"/><use xlink:href="#b" x="13.996" y="2.146"/><use xlink:href="#1"/><use xlink:href="#2" y="2.171"/></svg><svg x="240"><use xlink:href="#a"/><use xlink:href="#b" x="13.996" y="2.146"/><use xlink:href="#1"/><use xlink:href="#2" y="2.171"/></svg><svg x="320"><use xlink:href="#a"/><use xlink:href="#b" x="14.996" y="2.146"/><use xlink:href="#1"/><text y="3.841" class="h">➜</text><text x="3.006" y="3.841" class="i">playground</text><text x="14.028" y="3.841" class="j">f</text></svg><svg x="400"><use xlink:href="#a"/><use xlink:href="#b" x="15.996" y="2.146"/><use xlink:href="#1"/><text y="3.841" class="h">➜</text><text x="3.006" y="3.841" class="i">playground</text><text x="14.028" y="3.841" class="j">fl</text></svg><svg x="480"><use xlink:href="#a"/><use xlink:href="#b" x="16.996" y="2.146"/><use xlink:href="#1"/><text y="3.841" class="h">➜</text><text x="3.006" y="3.841" class="i">playground</text><text x="14.028" y="3.841" class="j">fla</text></svg><svg x="560"><use xlink:href="#a"/><use xlink:href="#b" x="17.996" y="2.146"/><use xlink:href="#1"/><text y="3.841" class="h">➜</text><text x="3.006" y="3.841" class="i">playground</text><text x="14.028" y="3.841" class="j">flak</text></svg><svg x="640"><use xlink:href="#a"/><use xlink:href="#b" x="18.996" y="2.146"/><use xlink:href="#1"/><text y="3.841" class="h">➜</text><text x="3.006" y="3.841" class="i">playground</text><text x="14.028" y="3.841" class="j">flake</text></svg><svg x="720"><use xlink:href="#a"/><use xlink:href="#b" x="19.996" y="2.146"/><use xlink:href="#1"/><use xlink:href="#3" y="2.171"/></svg><svg x="800"><use xlink:href="#a"/><use xlink:href="#b" x="20.996" y="2.146"/><use xlink:href="#1"/><use xlink:href="#3" y="2.171"/></svg><svg x="880"><use xlink:href="#a"/><use xlink:href="#b" x="21.996" y="2.146"/><use xlink:href="#1"/><text y="3.841" class="h">➜</text><text x="3.006" y="3.841" class="i">playground</text><text x="14.028" y="3.841" class="j">flake8</text><text x="21.042" y="3.841" class="j">f</text></svg><svg x="960"><use xlink:href="#a"/><use xlink:href="#b" x="22.996" y="2.146"/><use xlink:href="#1"/><text y="3.841" class="h">➜</text><text x="3.006" y="3.841" class="i">playground</text><text x="14.028" y="3.841" class="j">flake8</text><text x="21.042" y="3.841" class="j">fo</text></svg><svg x="1040"><use xlink:href="#a"/><use xlink:href="#b" x="23.996" y="2.146"/><use xlink:href="#1"/><text y="3.841" class="h">➜</text><text x="3.006" y="3.841" class="i">playground</text><text x="14.028" y="3.841" class="j">flake8</text><text x="21.042" y="3.841" class="j">foo</text></svg><svg x="1120"><use xlink:href="#a"/><use xlink:href="#b" x="24.996" y="2.146"/><use xlink:href="#1"/><text y="3.841" class="h">➜</text><text x="3.006" y="3.841" class="i">playground</text><text x="14.028" y="3.841" class="j">flake8</text><text x="21.042" y="3.841" class="j">foob</text></svg><svg x="1200"><use xlink:href="#a"/><use xlink:href="#b" x="25.996" y="2.146"/><use xlink:href="#1"/><text y="3.841" class="h">➜</text><text x="3.006" y="3.841" class="i">playground</text><text x="14.028" y="3.841" class="j">flake8</text><text x="21.042" y="3.841" class="j">fooba</text></svg><svg x="1280"><use xlink:href="#a"/><use xlink:href="#b" x="26.996" y="2.146"/><use xlink:href="#1"/><text y="3.841" class="h">➜</text><text x="3.006" y="3.841" class="i">playground</text><text x="14.028" y="3.841" class="j">flake8</text><text x="21.042" y="3.841" class="j">foobar</text></svg><svg x="1360"><use xlink:href="#a"/><use xlink:href="#b" x="27.996" y="2.146"/><use xlink:href="#1"/><text y="3.841" class="h">➜</text><text x="3.006" y="3.841" class="i">playground</text><text x="14.028" y="3.841" class="j">flake8</text><text x="21.042" y="3.841" class="j">foobar.</text></svg><svg x="1440"><use xlink:href="#a"/><use xlink:href="#b" x="28.996" y="2.146"/><use xlink:href="#1"/><text y="3.841" class="h">➜</text><text x="3.006" y="3.841" class="i">playground</text><text x="14.028" y="3.841" class="j">flake8</text><text x="21.042" y="3.841" class="j">foobar.p</text></svg><svg x="1520"><use xlink:href="#a"/><use xlink:href="#b" x="29.996" y="2.146"/><use xlink:href="#1"/><use xlink:href="#4" y="2.171"/></svg><svg x="1600"><use xlink:href="#a"/><use xlink:href="#b" x="29.996" y="2.146"/><use xlink:href="#1"/><use xlink:href="#4" y="2.171"/></svg><svg x="1680"><use xlink:href="#a"/><use xlink:href="#b" x="-.004" y="4.317"/><use xlink:href="#1"/><use xlink:href="#4" y="2.171"/></svg><svg x="1760"><use xlink:href="#a"/><use xlink:href="#b" x="-.004" y="4.317"/><use xlink:href="#1"/><use xlink:href="#4" y="2.171"/></svg><svg x="1840"><use xlink:href="#a"/><use xlink:href="#b" x="-.004" y="6.488"/><use xlink:href="#1"/><use xlink:href="#4" y="2.171"/><use xlink:href="#5" y="4.342"/></svg><svg x="1920"><use xlink:href="#a"/><use xlink:href="#b" x="-.004" y="10.83"/><use xlink:href="#1"/><use xlink:href="#4" y="2.171"/><use xlink:href="#5" y="4.342"/><use xlink:href="#6" y="6.513"/><use xlink:href="#7" y="8.684"/></svg><svg x="2000"><use xlink:href="#a"/><use xlink:href="#b" x="-.004" y="13.001"/><use xlink:href="#1"/><use xlink:href="#4" y="2.171"/><use xlink:href="#5" y="4.342"/><use xlink:href="#6" y="6.513"/><use xlink:href="#7" y="8.684"/><use xlink:href="#8" y="10.855"/></svg><svg x="2080"><use xlink:href="#a"/><use xlink:href="#b" x="-.004" y="15.172"/><use xlink:href="#1"/><use xlink:href="#4" y="2.171"/><use xlink:href="#5" y="4.342"/><use xlink:href="#6" y="6.513"/><use xlink:href="#7" y="8.684"/><use xlink:href="#8" y="10.855"/><use xlink:href="#9" y="13.026"/></svg><svg x="2160"><use xlink:href="#a"/><use xlink:href="#b" x="-.004" y="17.343"/><use xlink:href="#1"/><use xlink:href="#4" y="2.171"/><use xlink:href="#5" y="4.342"/><use xlink:href="#6" y="6.513"/><use xlink:href="#7" y="8.684"/><use xlink:href="#8" y="10.855"/><use xlink:href="#9" y="13.026"/><use xlink:href="#1" y="15.197"/></svg><svg x="2240"><use xlink:href="#a"/><use xlink:href="#b" x="-.004" y="17.343"/><use xlink:href="#1"/><use xlink:href="#4" y="2.171"/><use xlink:href="#5" y="4.342"/><use xlink:href="#6" y="6.513"/><use xlink:href="#7" y="8.684"/><use xlink:href="#8" y="10.855"/><use xlink:href="#9" y="13.026"/><use xlink:href="#1" y="15.197"/></svg><svg x="2320"><use xlink:href="#a"/><use xlink:href="#b" x="13.996" y="17.343"/><use xlink:href="#1"/><use xlink:href="#4" y="2.171"/><use xlink:href="#5" y="4.342"/><use xlink:href="#6" y="6.513"/><use xlink:href="#7" y="8.684"/><use xlink:href="#8" y="10.855"/><use xlink:href="#9" y="13.026"/><use xlink:href="#1" y="15.197"/><use xlink:href="#10" y="17.368"/></svg><svg x="2400"><use xlink:href="#a"/><use xlink:href="#b" x="13.996" y="17.343"/><use xlink:href="#1"/><use xlink:href="#4" y="2.171"/><use xlink:href="#5" y="4.342"/><use xlink:href="#6" y="6.513"/><use xlink:href="#7" y="8.684"/><use xlink:href="#8" y="10.855"/><use xlink:href="#9" y="13.026"/><use xlink:href="#1" y="15.197"/><use xlink:href="#10" y="17.368"/></svg><svg x="2480"><use xlink:href="#a"/><use xlink:href="#b" x="-.004" y="19.514"/><use xlink:href="#1"/><use xlink:href="#4" y="2.171"/><use xlink:href="#5" y="4.342"/><use xlink:href="#6" y="6.513"/><use xlink:href="#7" y="8.684"/><use xlink:href="#8" y="10.855"/><use xlink:href="#9" y="13.026"/><use xlink:href="#1" y="15.197"/><use xlink:href="#10" y="17.368"/></svg></svg></g></g></svg></svg>