<svg xmlns="http://www.w3.org/2000/svg" xmlns:xlink="http://www.w3.org/1999/xlink" width="1040" height="363.94"><rect width="1040" height="363.94" rx="5" ry="5" class="a"/><svg y="0%" x="0%"><circle cx="20" cy="20" r="6" fill="#ff5f58"/><circle cx="40" cy="20" r="6" fill="#ffbd2e"/><circle cx="60" cy="20" r="6" fill="#18c132"/></svg><svg height="303.94" viewBox="0 0 100 30.394" width="1000" x="15" xmlns="http://www.w3.org/2000/svg" xmlns:xlink="http://www.w3.org/1999/xlink" y="50"><style>@keyframes q{0%{transform:translateX(0)}7.53%{transform:translateX(-100px)}7.54%{transform:translateX(-200px)}7.67%{transform:translateX(-400px)}11.6%{transform:translateX(-500px)}11.85%{transform:translateX(-600px)}12.35%{transform:translateX(-700px)}13.99%{transform:translateX(-800px)}14.54%{transform:translateX(-900px)}15.13%{transform:translateX(-1000px)}16.81%{transform:translateX(-1100px)}21.48%{transform:translateX(-1200px)}22.24%{transform:translateX(-1300px)}23.63%{transform:translateX(-1400px)}24.35%{transform:translateX(-1500px)}25.06%{transform:translateX(-1600px)}25.46%{transform:translateX(-1700px)}25.7%{transform:translateX(-1800px)}26.2%{transform:translateX(-1900px)}29.74%{transform:translateX(-2000px)}33.15%{transform:translateX(-2100px)}34.37%{transform:translateX(-2200px)}36.85%{transform:translateX(-2300px)}39.25%{transform:translateX(-2400px)}40.81%{transform:translateX(-2500px)}42.62%{transform:translateX(-2700px)}42.67%{transform:translateX(-2800px)}53.21%{transform:translateX(-2900px)}53.22%{transform:translateX(-3000px)}53.23%{transform:translateX(-3200px)}53.24%{transform:translateX(-3300px)}53.66%{transform:translateX(-3400px)}54.1%{transform:translateX(-3500px)}54.52%{transform:translateX(-3600px)}54.95%{transform:translateX(-3700px)}55.39%{transform:translateX(-3800px)}55.83%{transform:translateX(-3900px)}56.28%{transform:translateX(-4000px)}56.72%{transform:translateX(-4100px)}57.14%{transform:translateX(-4200px)}57.59%{transform:translateX(-4300px)}58.01%{transform:translateX(-4400px)}58.43%{transform:translateX(-4500px)}58.86%{transform:translateX(-4600px)}59.29%{transform:translateX(-4700px)}59.71%{transform:translateX(-4800px)}60.16%{transform:translateX(-4900px)}60.59%{transform:translateX(-5000px)}61.03%{transform:translateX(-5100px)}61.48%{transform:translateX(-5200px)}61.91%{transform:translateX(-5300px)}62.34%{transform:translateX(-5400px)}62.78%{transform:translateX(-5500px)}63.21%{transform:translateX(-5600px)}63.65%{transform:translateX(-5700px)}64.09%{transform:translateX(-5800px)}64.54%{transform:translateX(-5900px)}64.98%{transform:translateX(-6000px)}65.41%{transform:translateX(-6100px)}65.85%{transform:translateX(-6200px)}66.29%{transform:translateX(-6300px)}66.73%{transform:translateX(-6400px)}67.17%{transform:translateX(-6500px)}67.61%{transform:translateX(-6600px)}68.05%{transform:translateX(-6700px)}68.48%{transform:translateX(-6800px)}68.92%{transform:translateX(-6900px)}69.34%{transform:translateX(-7000px)}69.79%{transform:translateX(-7100px)}70.24%{transform:translateX(-7200px)}70.68%{transform:translateX(-7300px)}71.12%{transform:translateX(-7400px)}71.55%{transform:translateX(-7500px)}71.97%{transform:translateX(-7600px)}72.4%{transform:translateX(-7700px)}72.83%{transform:translateX(-7800px)}73.25%{transform:translateX(-7900px)}73.67%{transform:translateX(-8000px)}74.1%{transform:translateX(-8100px)}74.54%{transform:translateX(-8200px)}74.97%{transform:translateX(-8300px)}75.4%{transform:translateX(-8400px)}75.82%{transform:translateX(-8500px)}76.25%{transform:translateX(-8600px)}76.68%{transform:translateX(-8700px)}77.1%{transform:translateX(-8800px)}77.52%{transform:translateX(-8900px)}77.94%{transform:translateX(-9000px)}78.37%{transform:translateX(-9100px)}78.8%{transform:translateX(-9200px)}79.23%{transform:translateX(-9300px)}79.65%{transform:translateX(-9400px)}80.08%{transform:translateX(-9500px)}80.5%{transform:translateX(-9600px)}80.94%{transform:translateX(-9700px)}81.36%{transform:translateX(-9800px)}81.57%{transform:translateX(-9900px)}81.81%{transform:translateX(-10100px)}82%{transform:translateX(-10200px)}82.33%{transform:translateX(-10300px)}82.69%{transform:translateX(-10500px)}82.88%{transform:translateX(-10700px)}to{transform:translateX(-10800px)}}.a{fill:#282d35}.h,.i{fill:#a8cc8c;font-weight:700;white-space:pre}.i{fill:#66c2cd}.j,.k{fill:#b9c0cb}.j{white-space:pre}.k{font-weight:700}.k,.l,.m,.n{white-space:pre}.l{fill:#e88388;font-weight:700}.m,.n{fill:#a8cc8c}.n{fill:#71bef2}</style><g font-family="Monaco,Consolas,Menlo,'Bitstream Vera Sans Mono','Powerline Symbols',monospace" font-size="1.67"><defs><symbol id="14"><text y="1.67" class="j">⠴</text><text x="2.004" y="1.67" class="j">Creating</text><text x="11.022" y="1.67" class="j">virtual</text><text x="19.038" y="1.67" class="j">environment...</text></symbol><symbol id="1"><path fill="#b9c0cb" d="M0 0h1v2.171H0z"/><text y="1.67" style="white-space:pre" fill="#282d35" font-weight="700">%</text></symbol><symbol id="3"><text y="1.67" class="h">➜</text><text x="3.006" y="1.67" class="i">playground</text><text x="14.028" y="1.67" class="j">pipenv</text></symbol><symbol id="4"><text y="1.67" class="h">➜</text><text x="3.006" y="1.67" class="i">playground</text><text x="14.028" y="1.67" class="j">pipenv</text><text x="21.042" y="1.67" class="j">--python</text></symbol><symbol id="5"><text y="1.67" class="h">➜</text><text x="3.006" y="1.67" class="i">playground</text><text x="14.028" y="1.67" class="j">pipenv</text><text x="21.042" y="1.67" class="j">--python</text><text x="30.06" y="1.67" class="j">3.7.5</text></symbol><symbol id="6"><text y="1.67" class="k">Creating</text><text x="9.018" y="1.67" class="k">a</text><text x="11.022" y="1.67" class="k">virtualenv</text><text x="22.044" y="1.67" class="k">for</text><text x="26.052" y="1.67" class="k">this</text><text x="31.062" y="1.67" class="k">project…</text></symbol><symbol id="7"><text y="1.67" class="j">Pipfile:</text><text x="9.018" y="1.67" class="l">/Users/eunwoocho/Source/PythonPractice/playground/Pipfile</text></symbol><symbol id="8"><text y="1.67" class="k">Using</text><text x="6.012" y="1.67" class="l">/Users/eunwoocho/.pyenv/versions/3.7.5/bin/python3</text><text x="57.114" y="1.67" class="m">(3.7.5)</text><text x="65.13" y="1.67" class="k">to</text><text x="68.136" y="1.67" class="k">create</text><text x="75.15" y="1.67" class="k">virtualenv…</text></symbol><symbol id="9"><text y="1.67" class="j">⠋</text><text x="2.004" y="1.67" class="j">Creating</text><text x="11.022" y="1.67" class="j">virtual</text><text x="19.038" y="1.67" class="j">environment...</text></symbol><symbol id="10"><text y="1.67" class="j">⠙</text><text x="2.004" y="1.67" class="j">Creating</text><text x="11.022" y="1.67" class="j">virtual</text><text x="19.038" y="1.67" class="j">environment...</text></symbol><symbol id="11"><text y="1.67" class="j">⠹</text><text x="2.004" y="1.67" class="j">Creating</text><text x="11.022" y="1.67" class="j">virtual</text><text x="19.038" y="1.67" class="j">environment...</text></symbol><symbol id="12"><text y="1.67" class="j">⠸</text><text x="2.004" y="1.67" class="j">Creating</text><text x="11.022" y="1.67" class="j">virtual</text><text x="19.038" y="1.67" class="j">environment...</text></symbol><symbol id="13"><text y="1.67" class="j">⠼</text><text x="2.004" y="1.67" class="j">Creating</text><text x="11.022" y="1.67" class="j">virtual</text><text x="19.038" y="1.67" class="j">environment...</text></symbol><symbol id="2"><text y="1.67" class="h">➜</text><text x="3.006" y="1.67" class="i">playground</text></symbol><symbol id="15"><text y="1.67" class="j">⠦</text><text x="2.004" y="1.67" class="j">Creating</text><text x="11.022" y="1.67" class="j">virtual</text><text x="19.038" y="1.67" class="j">environment...</text></symbol><symbol id="16"><text y="1.67" class="j">⠧</text><text x="2.004" y="1.67" class="j">Creating</text><text x="11.022" y="1.67" class="j">virtual</text><text x="19.038" y="1.67" class="j">environment...</text></symbol><symbol id="17"><text y="1.67" class="j">⠇</text><text x="2.004" y="1.67" class="j">Creating</text><text x="11.022" y="1.67" class="j">virtual</text><text x="19.038" y="1.67" class="j">environment...</text></symbol><symbol id="18"><text y="1.67" class="j">⠏</text><text x="2.004" y="1.67" class="j">Creating</text><text x="11.022" y="1.67" class="j">virtual</text><text x="19.038" y="1.67" class="j">environment...</text></symbol><symbol id="19"><text y="1.67" class="j">⠴</text><text x="2.004" y="1.67" class="j">Creating</text><text x="11.022" y="1.67" class="j">virtual</text><text x="19.038" y="1.67" class="j">environment...</text><text x="33.066" y="1.67" class="n">Using</text><text x="39.078" y="1.67" class="n">base</text><text x="44.088" y="1.67" class="n">prefix</text><text x="51.102" y="1.67" class="n">&apos;/Users/eunwoocho/.pyenv/versions/3.7.5&apos;</text></symbol><symbol id="20"><text y="1.67" class="n">New</text><text x="4.008" y="1.67" class="n">python</text><text x="11.022" y="1.67" class="n">executable</text><text x="22.044" y="1.67" class="n">in</text><text x="25.05" y="1.67" class="n">/Users/eunwoocho/.local/share/virtualenvs/playground-eZWJHgWv/bin/python3</text></symbol><symbol id="21"><text y="1.67" class="n">Also</text><text x="5.01" y="1.67" class="n">creating</text><text x="14.028" y="1.67" class="n">executable</text><text x="25.05" y="1.67" class="n">in</text><text x="28.056" y="1.67" class="n">/Users/eunwoocho/.local/share/virtualenvs/playground-eZWJHgWv/bin/python</text></symbol><symbol id="22"><text y="1.67" class="n">Installing</text><text x="11.022" y="1.67" class="n">setuptools,</text><text x="23.046" y="1.67" class="n">pip,</text><text x="28.056" y="1.67" class="n">wheel...done.</text></symbol><symbol id="23"><text y="1.67" class="n">Running</text><text x="8.016" y="1.67" class="n">virtualenv</text><text x="19.038" y="1.67" class="n">with</text><text x="24.048" y="1.67" class="n">interpreter</text><text x="36.072" y="1.67" class="n">/Users/eunwoocho/.pyenv/versions/3.7.5/bin/python3</text></symbol><symbol id="24"><text y="1.67" class="m">✔</text><text x="2.004" y="1.67" class="m">Successfully</text><text x="15.03" y="1.67" class="m">created</text><text x="23.046" y="1.67" class="m">virtual</text><text x="31.062" y="1.67" class="m">environment!</text></symbol><symbol id="25"><text y="1.67" class="j">Virtualenv</text><text x="11.022" y="1.67" class="j">location:</text><text x="21.042" y="1.67" class="m">/Users/eunwoocho/.local/share/virtualenvs/playground-eZWJHgWv</text></symbol><symbol id="a"><path fill="transparent" d="M0 0h100v15H0z"/></symbol><symbol id="b"><path fill="#6f7683" d="M0 0h1.102v2.171H0z"/></symbol></defs><path class="a" d="M0 0h100v30.394H0z"/><g style="animation-duration:19.002408s;animation-iteration-count:infinite;animation-name:q;animation-timing-function:steps(1,end)"><svg width="10900"><svg><use xlink:href="#a"/><use xlink:href="#b" x="-.004"/></svg><svg x="100"><use xlink:href="#a"/><use xlink:href="#b" x="-.004" y="2.146"/><use xlink:href="#1"/></svg><svg x="200"><use xlink:href="#a"/><use xlink:href="#b" x="-.004" y="2.146"/><use xlink:href="#1"/></svg><svg x="300"><use xlink:href="#a"/><use xlink:href="#b" x="13.996" y="2.146"/><use xlink:href="#1"/><use xlink:href="#2" y="2.171"/></svg><svg x="400"><use xlink:href="#a"/><use xlink:href="#b" x="13.996" y="2.146"/><use xlink:href="#1"/><use xlink:href="#2" y="2.171"/></svg><svg x="500"><use xlink:href="#a"/><use xlink:href="#b" x="14.996" y="2.146"/><use xlink:href="#1"/><text y="3.841" class="h">➜</text><text x="3.006" y="3.841" class="i">playground</text><text x="14.028" y="3.841" class="j">p</text></svg><svg x="600"><use xlink:href="#a"/><use xlink:href="#b" x="15.996" y="2.146"/><use xlink:href="#1"/><text y="3.841" class="h">➜</text><text x="3.006" y="3.841" class="i">playground</text><text x="14.028" y="3.841" class="j">pi</text></svg><svg x="700"><use xlink:href="#a"/><use xlink:href="#b" x="16.996" y="2.146"/><use xlink:href="#1"/><text y="3.841" class="h">➜</text><text x="3.006" y="3.841" class="i">playground</text><text x="14.028" y="3.841" class="j">pip</text></svg><svg x="800"><use xlink:href="#a"/><use xlink:href="#b" x="17.996" y="2.146"/><use xlink:href="#1"/><text y="3.841" class="h">➜</text><text x="3.006" y="3.841" class="i">playground</text><text x="14.028" y="3.841" class="j">pipe</text></svg><svg x="900"><use xlink:href="#a"/><use xlink:href="#b" x="18.996" y="2.146"/><use xlink:href="#1"/><text y="3.841" class="h">➜</text><text x="3.006" y="3.841" class="i">playground</text><text x="14.028" y="3.841" class="j">pipen</text></svg><svg x="1000"><use xlink:href="#a"/><use xlink:href="#b" x="19.996" y="2.146"/><use xlink:href="#1"/><use xlink:href="#3" y="2.171"/></svg><svg x="1100"><use xlink:href="#a"/><use xlink:href="#b" x="20.996" y="2.146"/><use xlink:href="#1"/><use xlink:href="#3" y="2.171"/></svg><svg x="1200"><use xlink:href="#a"/><use xlink:href="#b" x="21.996" y="2.146"/><use xlink:href="#1"/><text y="3.841" class="h">➜</text><text x="3.006" y="3.841" class="i">playground</text><text x="14.028" y="3.841" class="j">pipenv</text><text x="21.042" y="3.841" class="j">-</text></svg><svg x="1300"><use xlink:href="#a"/><use xlink:href="#b" x="22.996" y="2.146"/><use xlink:href="#1"/><text y="3.841" class="h">➜</text><text x="3.006" y="3.841" class="i">playground</text><text x="14.028" y="3.841" class="j">pipenv</text><text x="21.042" y="3.841" class="j">--</text></svg><svg x="1400"><use xlink:href="#a"/><use xlink:href="#b" x="23.996" y="2.146"/><use xlink:href="#1"/><text y="3.841" class="h">➜</text><text x="3.006" y="3.841" class="i">playground</text><text x="14.028" y="3.841" class="j">pipenv</text><text x="21.042" y="3.841" class="j">--p</text></svg><svg x="1500"><use xlink:href="#a"/><use xlink:href="#b" x="24.996" y="2.146"/><use xlink:href="#1"/><text y="3.841" class="h">➜</text><text x="3.006" y="3.841" class="i">playground</text><text x="14.028" y="3.841" class="j">pipenv</text><text x="21.042" y="3.841" class="j">--py</text></svg><svg x="1600"><use xlink:href="#a"/><use xlink:href="#b" x="25.996" y="2.146"/><use xlink:href="#1"/><text y="3.841" class="h">➜</text><text x="3.006" y="3.841" class="i">playground</text><text x="14.028" y="3.841" class="j">pipenv</text><text x="21.042" y="3.841" class="j">--pyt</text></svg><svg x="1700"><use xlink:href="#a"/><use xlink:href="#b" x="26.996" y="2.146"/><use xlink:href="#1"/><text y="3.841" class="h">➜</text><text x="3.006" y="3.841" class="i">playground</text><text x="14.028" y="3.841" class="j">pipenv</text><text x="21.042" y="3.841" class="j">--pyth</text></svg><svg x="1800"><use xlink:href="#a"/><use xlink:href="#b" x="27.996" y="2.146"/><use xlink:href="#1"/><text y="3.841" class="h">➜</text><text x="3.006" y="3.841" class="i">playground</text><text x="14.028" y="3.841" class="j">pipenv</text><text x="21.042" y="3.841" class="j">--pytho</text></svg><svg x="1900"><use xlink:href="#a"/><use xlink:href="#b" x="28.996" y="2.146"/><use xlink:href="#1"/><use xlink:href="#4" y="2.171"/></svg><svg x="2000"><use xlink:href="#a"/><use xlink:href="#b" x="29.996" y="2.146"/><use xlink:href="#1"/><use xlink:href="#4" y="2.171"/></svg><svg x="2100"><use xlink:href="#a"/><use xlink:href="#b" x="30.996" y="2.146"/><use xlink:href="#1"/><text y="3.841" class="h">➜</text><text x="3.006" y="3.841" class="i">playground</text><text x="14.028" y="3.841" class="j">pipenv</text><text x="21.042" y="3.841" class="j">--python</text><text x="30.06" y="3.841" class="j">3</text></svg><svg x="2200"><use xlink:href="#a"/><use xlink:href="#b" x="31.996" y="2.146"/><use xlink:href="#1"/><text y="3.841" class="h">➜</text><text x="3.006" y="3.841" class="i">playground</text><text x="14.028" y="3.841" class="j">pipenv</text><text x="21.042" y="3.841" class="j">--python</text><text x="30.06" y="3.841" class="j">3.</text></svg><svg x="2300"><use xlink:href="#a"/><use xlink:href="#b" x="32.996" y="2.146"/><use xlink:href="#1"/><text y="3.841" class="h">➜</text><text x="3.006" y="3.841" class="i">playground</text><text x="14.028" y="3.841" class="j">pipenv</text><text x="21.042" y="3.841" class="j">--python</text><text x="30.06" y="3.841" class="j">3.7</text></svg><svg x="2400"><use xlink:href="#a"/><use xlink:href="#b" x="33.996" y="2.146"/><use xlink:href="#1"/><text y="3.841" class="h">➜</text><text x="3.006" y="3.841" class="i">playground</text><text x="14.028" y="3.841" class="j">pipenv</text><text x="21.042" y="3.841" class="j">--python</text><text x="30.06" y="3.841" class="j">3.7.</text></svg><svg x="2500"><use xlink:href="#a"/><use xlink:href="#b" x="34.996" y="2.146"/><use xlink:href="#1"/><use xlink:href="#5" y="2.171"/></svg><svg x="2600"><use xlink:href="#a"/><use xlink:href="#b" x="34.996" y="2.146"/><use xlink:href="#1"/><use xlink:href="#5" y="2.171"/></svg><svg x="2700"><use xlink:href="#a"/><use xlink:href="#b" x="-.004" y="4.317"/><use xlink:href="#1"/><use xlink:href="#5" y="2.171"/></svg><svg x="2800"><use xlink:href="#a"/><use xlink:href="#b" x="-.004" y="4.317"/><use xlink:href="#1"/><use xlink:href="#5" y="2.171"/></svg><svg x="2900"><use xlink:href="#a"/><use xlink:href="#b" x="-.004" y="6.488"/><use xlink:href="#1"/><use xlink:href="#5" y="2.171"/><use xlink:href="#6" y="4.342"/></svg><svg x="3000"><use xlink:href="#a"/><use xlink:href="#b" x="-.004" y="10.83"/><use xlink:href="#1"/><use xlink:href="#5" y="2.171"/><use xlink:href="#6" y="4.342"/><use xlink:href="#7" y="6.513"/><use xlink:href="#8" y="8.684"/></svg><svg x="3100"><use xlink:href="#a"/><use xlink:href="#1"/><use xlink:href="#5" y="2.171"/><use xlink:href="#6" y="4.342"/><use xlink:href="#7" y="6.513"/><use xlink:href="#8" y="8.684"/></svg><svg x="3200"><use xlink:href="#a"/><use xlink:href="#1"/><use xlink:href="#5" y="2.171"/><use xlink:href="#6" y="4.342"/><use xlink:href="#7" y="6.513"/><use xlink:href="#8" y="8.684"/><use xlink:href="#9" y="10.855"/></svg><svg x="3300"><use xlink:href="#a"/><use xlink:href="#1"/><use xlink:href="#5" y="2.171"/><use xlink:href="#6" y="4.342"/><use xlink:href="#7" y="6.513"/><use xlink:href="#8" y="8.684"/><use xlink:href="#9" y="10.855"/></svg><svg x="3400"><use xlink:href="#a"/><use xlink:href="#1"/><use xlink:href="#5" y="2.171"/><use xlink:href="#6" y="4.342"/><use xlink:href="#7" y="6.513"/><use xlink:href="#8" y="8.684"/><use xlink:href="#10" y="10.855"/></svg><svg x="3500"><use xlink:href="#a"/><use xlink:href="#1"/><use xlink:href="#5" y="2.171"/><use xlink:href="#6" y="4.342"/><use xlink:href="#7" y="6.513"/><use xlink:href="#8" y="8.684"/><use xlink:href="#11" y="10.855"/></svg><svg x="3600"><use xlink:href="#a"/><use xlink:href="#1"/><use xlink:href="#5" y="2.171"/><use xlink:href="#6" y="4.342"/><use xlink:href="#7" y="6.513"/><use xlink:href="#8" y="8.684"/><use xlink:href="#12" y="10.855"/></svg><svg x="3700"><use xlink:href="#a"/><use xlink:href="#1"/><use xlink:href="#5" y="2.171"/><use xlink:href="#6" y="4.342"/><use xlink:href="#7" y="6.513"/><use xlink:href="#8" y="8.684"/><use xlink:href="#13" y="10.855"/></svg><svg x="3800"><use xlink:href="#a"/><use xlink:href="#1"/><use xlink:href="#5" y="2.171"/><use xlink:href="#6" y="4.342"/><use xlink:href="#7" y="6.513"/><use xlink:href="#8" y="8.684"/><use xlink:href="#14" y="10.855"/></svg><svg x="3900"><use xlink:href="#a"/><use xlink:href="#1"/><use xlink:href="#5" y="2.171"/><use xlink:href="#6" y="4.342"/><use xlink:href="#7" y="6.513"/><use xlink:href="#8" y="8.684"/><use xlink:href="#15" y="10.855"/></svg><svg x="4000"><use xlink:href="#a"/><use xlink:href="#1"/><use xlink:href="#5" y="2.171"/><use xlink:href="#6" y="4.342"/><use xlink:href="#7" y="6.513"/><use xlink:href="#8" y="8.684"/><use xlink:href="#16" y="10.855"/></svg><svg x="4100"><use xlink:href="#a"/><use xlink:href="#1"/><use xlink:href="#5" y="2.171"/><use xlink:href="#6" y="4.342"/><use xlink:href="#7" y="6.513"/><use xlink:href="#8" y="8.684"/><use xlink:href="#17" y="10.855"/></svg><svg x="4200"><use xlink:href="#a"/><use xlink:href="#1"/><use xlink:href="#5" y="2.171"/><use xlink:href="#6" y="4.342"/><use xlink:href="#7" y="6.513"/><use xlink:href="#8" y="8.684"/><use xlink:href="#18" y="10.855"/></svg><svg x="4300"><use xlink:href="#a"/><use xlink:href="#1"/><use xlink:href="#5" y="2.171"/><use xlink:href="#6" y="4.342"/><use xlink:href="#7" y="6.513"/><use xlink:href="#8" y="8.684"/><use xlink:href="#9" y="10.855"/></svg><svg x="4400"><use xlink:href="#a"/><use xlink:href="#1"/><use xlink:href="#5" y="2.171"/><use xlink:href="#6" y="4.342"/><use xlink:href="#7" y="6.513"/><use xlink:href="#8" y="8.684"/><use xlink:href="#10" y="10.855"/></svg><svg x="4500"><use xlink:href="#a"/><use xlink:href="#1"/><use xlink:href="#5" y="2.171"/><use xlink:href="#6" y="4.342"/><use xlink:href="#7" y="6.513"/><use xlink:href="#8" y="8.684"/><use xlink:href="#11" y="10.855"/></svg><svg x="4600"><use xlink:href="#a"/><use xlink:href="#1"/><use xlink:href="#5" y="2.171"/><use xlink:href="#6" y="4.342"/><use xlink:href="#7" y="6.513"/><use xlink:href="#8" y="8.684"/><use xlink:href="#12" y="10.855"/></svg><svg x="4700"><use xlink:href="#a"/><use xlink:href="#1"/><use xlink:href="#5" y="2.171"/><use xlink:href="#6" y="4.342"/><use xlink:href="#7" y="6.513"/><use xlink:href="#8" y="8.684"/><use xlink:href="#13" y="10.855"/></svg><svg x="4800"><use xlink:href="#a"/><use xlink:href="#1"/><use xlink:href="#5" y="2.171"/><use xlink:href="#6" y="4.342"/><use xlink:href="#7" y="6.513"/><use xlink:href="#8" y="8.684"/><use xlink:href="#14" y="10.855"/></svg><svg x="4900"><use xlink:href="#a"/><use xlink:href="#1"/><use xlink:href="#5" y="2.171"/><use xlink:href="#6" y="4.342"/><use xlink:href="#7" y="6.513"/><use xlink:href="#8" y="8.684"/><use xlink:href="#15" y="10.855"/></svg><svg x="5000"><use xlink:href="#a"/><use xlink:href="#1"/><use xlink:href="#5" y="2.171"/><use xlink:href="#6" y="4.342"/><use xlink:href="#7" y="6.513"/><use xlink:href="#8" y="8.684"/><use xlink:href="#16" y="10.855"/></svg><svg x="5100"><use xlink:href="#a"/><use xlink:href="#1"/><use xlink:href="#5" y="2.171"/><use xlink:href="#6" y="4.342"/><use xlink:href="#7" y="6.513"/><use xlink:href="#8" y="8.684"/><use xlink:href="#17" y="10.855"/></svg><svg x="5200"><use xlink:href="#a"/><use xlink:href="#1"/><use xlink:href="#5" y="2.171"/><use xlink:href="#6" y="4.342"/><use xlink:href="#7" y="6.513"/><use xlink:href="#8" y="8.684"/><use xlink:href="#18" y="10.855"/></svg><svg x="5300"><use xlink:href="#a"/><use xlink:href="#1"/><use xlink:href="#5" y="2.171"/><use xlink:href="#6" y="4.342"/><use xlink:href="#7" y="6.513"/><use xlink:href="#8" y="8.684"/><use xlink:href="#9" y="10.855"/></svg><svg x="5400"><use xlink:href="#a"/><use xlink:href="#1"/><use xlink:href="#5" y="2.171"/><use xlink:href="#6" y="4.342"/><use xlink:href="#7" y="6.513"/><use xlink:href="#8" y="8.684"/><use xlink:href="#10" y="10.855"/></svg><svg x="5500"><use xlink:href="#a"/><use xlink:href="#1"/><use xlink:href="#5" y="2.171"/><use xlink:href="#6" y="4.342"/><use xlink:href="#7" y="6.513"/><use xlink:href="#8" y="8.684"/><use xlink:href="#11" y="10.855"/></svg><svg x="5600"><use xlink:href="#a"/><use xlink:href="#1"/><use xlink:href="#5" y="2.171"/><use xlink:href="#6" y="4.342"/><use xlink:href="#7" y="6.513"/><use xlink:href="#8" y="8.684"/><use xlink:href="#12" y="10.855"/></svg><svg x="5700"><use xlink:href="#a"/><use xlink:href="#1"/><use xlink:href="#5" y="2.171"/><use xlink:href="#6" y="4.342"/><use xlink:href="#7" y="6.513"/><use xlink:href="#8" y="8.684"/><use xlink:href="#13" y="10.855"/></svg><svg x="5800"><use xlink:href="#a"/><use xlink:href="#1"/><use xlink:href="#5" y="2.171"/><use xlink:href="#6" y="4.342"/><use xlink:href="#7" y="6.513"/><use xlink:href="#8" y="8.684"/><use xlink:href="#14" y="10.855"/></svg><svg x="5900"><use xlink:href="#a"/><use xlink:href="#1"/><use xlink:href="#5" y="2.171"/><use xlink:href="#6" y="4.342"/><use xlink:href="#7" y="6.513"/><use xlink:href="#8" y="8.684"/><use xlink:href="#15" y="10.855"/></svg><svg x="6000"><use xlink:href="#a"/><use xlink:href="#1"/><use xlink:href="#5" y="2.171"/><use xlink:href="#6" y="4.342"/><use xlink:href="#7" y="6.513"/><use xlink:href="#8" y="8.684"/><use xlink:href="#16" y="10.855"/></svg><svg x="6100"><use xlink:href="#a"/><use xlink:href="#1"/><use xlink:href="#5" y="2.171"/><use xlink:href="#6" y="4.342"/><use xlink:href="#7" y="6.513"/><use xlink:href="#8" y="8.684"/><use xlink:href="#17" y="10.855"/></svg><svg x="6200"><use xlink:href="#a"/><use xlink:href="#1"/><use xlink:href="#5" y="2.171"/><use xlink:href="#6" y="4.342"/><use xlink:href="#7" y="6.513"/><use xlink:href="#8" y="8.684"/><use xlink:href="#18" y="10.855"/></svg><svg x="6300"><use xlink:href="#a"/><use xlink:href="#1"/><use xlink:href="#5" y="2.171"/><use xlink:href="#6" y="4.342"/><use xlink:href="#7" y="6.513"/><use xlink:href="#8" y="8.684"/><use xlink:href="#9" y="10.855"/></svg><svg x="6400"><use xlink:href="#a"/><use xlink:href="#1"/><use xlink:href="#5" y="2.171"/><use xlink:href="#6" y="4.342"/><use xlink:href="#7" y="6.513"/><use xlink:href="#8" y="8.684"/><use xlink:href="#10" y="10.855"/></svg><svg x="6500"><use xlink:href="#a"/><use xlink:href="#1"/><use xlink:href="#5" y="2.171"/><use xlink:href="#6" y="4.342"/><use xlink:href="#7" y="6.513"/><use xlink:href="#8" y="8.684"/><use xlink:href="#11" y="10.855"/></svg><svg x="6600"><use xlink:href="#a"/><use xlink:href="#1"/><use xlink:href="#5" y="2.171"/><use xlink:href="#6" y="4.342"/><use xlink:href="#7" y="6.513"/><use xlink:href="#8" y="8.684"/><use xlink:href="#12" y="10.855"/></svg><svg x="6700"><use xlink:href="#a"/><use xlink:href="#1"/><use xlink:href="#5" y="2.171"/><use xlink:href="#6" y="4.342"/><use xlink:href="#7" y="6.513"/><use xlink:href="#8" y="8.684"/><use xlink:href="#13" y="10.855"/></svg><svg x="6800"><use xlink:href="#a"/><use xlink:href="#1"/><use xlink:href="#5" y="2.171"/><use xlink:href="#6" y="4.342"/><use xlink:href="#7" y="6.513"/><use xlink:href="#8" y="8.684"/><use xlink:href="#14" y="10.855"/></svg><svg x="6900"><use xlink:href="#a"/><use xlink:href="#1"/><use xlink:href="#5" y="2.171"/><use xlink:href="#6" y="4.342"/><use xlink:href="#7" y="6.513"/><use xlink:href="#8" y="8.684"/><use xlink:href="#15" y="10.855"/></svg><svg x="7000"><use xlink:href="#a"/><use xlink:href="#1"/><use xlink:href="#5" y="2.171"/><use xlink:href="#6" y="4.342"/><use xlink:href="#7" y="6.513"/><use xlink:href="#8" y="8.684"/><use xlink:href="#16" y="10.855"/></svg><svg x="7100"><use xlink:href="#a"/><use xlink:href="#1"/><use xlink:href="#5" y="2.171"/><use xlink:href="#6" y="4.342"/><use xlink:href="#7" y="6.513"/><use xlink:href="#8" y="8.684"/><use xlink:href="#17" y="10.855"/></svg><svg x="7200"><use xlink:href="#a"/><use xlink:href="#1"/><use xlink:href="#5" y="2.171"/><use xlink:href="#6" y="4.342"/><use xlink:href="#7" y="6.513"/><use xlink:href="#8" y="8.684"/><use xlink:href="#18" y="10.855"/></svg><svg x="7300"><use xlink:href="#a"/><use xlink:href="#1"/><use xlink:href="#5" y="2.171"/><use xlink:href="#6" y="4.342"/><use xlink:href="#7" y="6.513"/><use xlink:href="#8" y="8.684"/><use xlink:href="#9" y="10.855"/></svg><svg x="7400"><use xlink:href="#a"/><use xlink:href="#1"/><use xlink:href="#5" y="2.171"/><use xlink:href="#6" y="4.342"/><use xlink:href="#7" y="6.513"/><use xlink:href="#8" y="8.684"/><use xlink:href="#10" y="10.855"/></svg><svg x="7500"><use xlink:href="#a"/><use xlink:href="#1"/><use xlink:href="#5" y="2.171"/><use xlink:href="#6" y="4.342"/><use xlink:href="#7" y="6.513"/><use xlink:href="#8" y="8.684"/><use xlink:href="#11" y="10.855"/></svg><svg x="7600"><use xlink:href="#a"/><use xlink:href="#1"/><use xlink:href="#5" y="2.171"/><use xlink:href="#6" y="4.342"/><use xlink:href="#7" y="6.513"/><use xlink:href="#8" y="8.684"/><use xlink:href="#12" y="10.855"/></svg><svg x="7700"><use xlink:href="#a"/><use xlink:href="#1"/><use xlink:href="#5" y="2.171"/><use xlink:href="#6" y="4.342"/><use xlink:href="#7" y="6.513"/><use xlink:href="#8" y="8.684"/><use xlink:href="#13" y="10.855"/></svg><svg x="7800"><use xlink:href="#a"/><use xlink:href="#1"/><use xlink:href="#5" y="2.171"/><use xlink:href="#6" y="4.342"/><use xlink:href="#7" y="6.513"/><use xlink:href="#8" y="8.684"/><use xlink:href="#14" y="10.855"/></svg><svg x="7900"><use xlink:href="#a"/><use xlink:href="#1"/><use xlink:href="#5" y="2.171"/><use xlink:href="#6" y="4.342"/><use xlink:href="#7" y="6.513"/><use xlink:href="#8" y="8.684"/><use xlink:href="#15" y="10.855"/></svg><svg x="8000"><use xlink:href="#a"/><use xlink:href="#1"/><use xlink:href="#5" y="2.171"/><use xlink:href="#6" y="4.342"/><use xlink:href="#7" y="6.513"/><use xlink:href="#8" y="8.684"/><use xlink:href="#16" y="10.855"/></svg><svg x="8100"><use xlink:href="#a"/><use xlink:href="#1"/><use xlink:href="#5" y="2.171"/><use xlink:href="#6" y="4.342"/><use xlink:href="#7" y="6.513"/><use xlink:href="#8" y="8.684"/><use xlink:href="#17" y="10.855"/></svg><svg x="8200"><use xlink:href="#a"/><use xlink:href="#1"/><use xlink:href="#5" y="2.171"/><use xlink:href="#6" y="4.342"/><use xlink:href="#7" y="6.513"/><use xlink:href="#8" y="8.684"/><use xlink:href="#18" y="10.855"/></svg><svg x="8300"><use xlink:href="#a"/><use xlink:href="#1"/><use xlink:href="#5" y="2.171"/><use xlink:href="#6" y="4.342"/><use xlink:href="#7" y="6.513"/><use xlink:href="#8" y="8.684"/><use xlink:href="#9" y="10.855"/></svg><svg x="8400"><use xlink:href="#a"/><use xlink:href="#1"/><use xlink:href="#5" y="2.171"/><use xlink:href="#6" y="4.342"/><use xlink:href="#7" y="6.513"/><use xlink:href="#8" y="8.684"/><use xlink:href="#10" y="10.855"/></svg><svg x="8500"><use xlink:href="#a"/><use xlink:href="#1"/><use xlink:href="#5" y="2.171"/><use xlink:href="#6" y="4.342"/><use xlink:href="#7" y="6.513"/><use xlink:href="#8" y="8.684"/><use xlink:href="#11" y="10.855"/></svg><svg x="8600"><use xlink:href="#a"/><use xlink:href="#1"/><use xlink:href="#5" y="2.171"/><use xlink:href="#6" y="4.342"/><use xlink:href="#7" y="6.513"/><use xlink:href="#8" y="8.684"/><use xlink:href="#12" y="10.855"/></svg><svg x="8700"><use xlink:href="#a"/><use xlink:href="#1"/><use xlink:href="#5" y="2.171"/><use xlink:href="#6" y="4.342"/><use xlink:href="#7" y="6.513"/><use xlink:href="#8" y="8.684"/><use xlink:href="#13" y="10.855"/></svg><svg x="8800"><use xlink:href="#a"/><use xlink:href="#1"/><use xlink:href="#5" y="2.171"/><use xlink:href="#6" y="4.342"/><use xlink:href="#7" y="6.513"/><use xlink:href="#8" y="8.684"/><use xlink:href="#14" y="10.855"/></svg><svg x="8900"><use xlink:href="#a"/><use xlink:href="#1"/><use xlink:href="#5" y="2.171"/><use xlink:href="#6" y="4.342"/><use xlink:href="#7" y="6.513"/><use xlink:href="#8" y="8.684"/><use xlink:href="#15" y="10.855"/></svg><svg x="9000"><use xlink:href="#a"/><use xlink:href="#1"/><use xlink:href="#5" y="2.171"/><use xlink:href="#6" y="4.342"/><use xlink:href="#7" y="6.513"/><use xlink:href="#8" y="8.684"/><use xlink:href="#16" y="10.855"/></svg><svg x="9100"><use xlink:href="#a"/><use xlink:href="#1"/><use xlink:href="#5" y="2.171"/><use xlink:href="#6" y="4.342"/><use xlink:href="#7" y="6.513"/><use xlink:href="#8" y="8.684"/><use xlink:href="#17" y="10.855"/></svg><svg x="9200"><use xlink:href="#a"/><use xlink:href="#1"/><use xlink:href="#5" y="2.171"/><use xlink:href="#6" y="4.342"/><use xlink:href="#7" y="6.513"/><use xlink:href="#8" y="8.684"/><use xlink:href="#18" y="10.855"/></svg><svg x="9300"><use xlink:href="#a"/><use xlink:href="#1"/><use xlink:href="#5" y="2.171"/><use xlink:href="#6" y="4.342"/><use xlink:href="#7" y="6.513"/><use xlink:href="#8" y="8.684"/><use xlink:href="#9" y="10.855"/></svg><svg x="9400"><use xlink:href="#a"/><use xlink:href="#1"/><use xlink:href="#5" y="2.171"/><use xlink:href="#6" y="4.342"/><use xlink:href="#7" y="6.513"/><use xlink:href="#8" y="8.684"/><use xlink:href="#10" y="10.855"/></svg><svg x="9500"><use xlink:href="#a"/><use xlink:href="#1"/><use xlink:href="#5" y="2.171"/><use xlink:href="#6" y="4.342"/><use xlink:href="#7" y="6.513"/><use xlink:href="#8" y="8.684"/><use xlink:href="#11" y="10.855"/></svg><svg x="9600"><use xlink:href="#a"/><use xlink:href="#1"/><use xlink:href="#5" y="2.171"/><use xlink:href="#6" y="4.342"/><use xlink:href="#7" y="6.513"/><use xlink:href="#8" y="8.684"/><use xlink:href="#12" y="10.855"/></svg><svg x="9700"><use xlink:href="#a"/><use xlink:href="#1"/><use xlink:href="#5" y="2.171"/><use xlink:href="#6" y="4.342"/><use xlink:href="#7" y="6.513"/><use xlink:href="#8" y="8.684"/><use xlink:href="#13" y="10.855"/></svg><svg x="9800"><use xlink:href="#a"/><use xlink:href="#1"/><use xlink:href="#5" y="2.171"/><use xlink:href="#6" y="4.342"/><use xlink:href="#7" y="6.513"/><use xlink:href="#8" y="8.684"/><use xlink:href="#14" y="10.855"/></svg><svg x="9900"><use xlink:href="#a"/><use xlink:href="#1"/><use xlink:href="#5" y="2.171"/><use xlink:href="#6" y="4.342"/><use xlink:href="#7" y="6.513"/><use xlink:href="#8" y="8.684"/><use xlink:href="#19" y="10.855"/><use xlink:href="#20" y="13.026"/><use xlink:href="#21" y="15.197"/><use xlink:href="#22" y="17.368"/><use xlink:href="#23" y="19.539"/></svg><svg x="10000"><use xlink:href="#a"/><use xlink:href="#b" x="-.004" y="23.856"/><use xlink:href="#1"/><use xlink:href="#5" y="2.171"/><use xlink:href="#6" y="4.342"/><use xlink:href="#7" y="6.513"/><use xlink:href="#8" y="8.684"/><use xlink:href="#19" y="10.855"/><use xlink:href="#20" y="13.026"/><use xlink:href="#21" y="15.197"/><use xlink:href="#22" y="17.368"/><use xlink:href="#23" y="19.539"/></svg><svg x="10100"><use xlink:href="#a"/><use xlink:href="#b" x="-.004" y="26.027"/><use xlink:href="#1"/><use xlink:href="#5" y="2.171"/><use xlink:href="#6" y="4.342"/><use xlink:href="#7" y="6.513"/><use xlink:href="#8" y="8.684"/><use xlink:href="#19" y="10.855"/><use xlink:href="#20" y="13.026"/><use xlink:href="#21" y="15.197"/><use xlink:href="#22" y="17.368"/><use xlink:href="#23" y="19.539"/><use xlink:href="#24" y="23.881"/></svg><svg x="10200"><use xlink:href="#a"/><use xlink:href="#b" x="-.004" y="28.198"/><use xlink:href="#1"/><use xlink:href="#5" y="2.171"/><use xlink:href="#6" y="4.342"/><use xlink:href="#7" y="6.513"/><use xlink:href="#8" y="8.684"/><use xlink:href="#19" y="10.855"/><use xlink:href="#20" y="13.026"/><use xlink:href="#21" y="15.197"/><use xlink:href="#22" y="17.368"/><use xlink:href="#23" y="19.539"/><use xlink:href="#24" y="23.881"/><use xlink:href="#25" y="26.052"/></svg><svg x="10300"><use xlink:href="#a"/><use xlink:href="#b" x="-.004" y="28.198"/><use xlink:href="#1"/><use xlink:href="#5" y="2.171"/><use xlink:href="#6" y="4.342"/><use xlink:href="#7" y="6.513"/><use xlink:href="#8" y="8.684"/><use xlink:href="#19" y="10.855"/><use xlink:href="#20" y="13.026"/><use xlink:href="#21" y="15.197"/><use xlink:href="#22" y="17.368"/><use xlink:href="#23" y="19.539"/><use xlink:href="#24" y="23.881"/><use xlink:href="#25" y="26.052"/></svg><svg x="10400"><use xlink:href="#a"/><use xlink:href="#b" x="-.004" y="30.369"/><use xlink:href="#1"/><use xlink:href="#5" y="2.171"/><use xlink:href="#6" y="4.342"/><use xlink:href="#7" y="6.513"/><use xlink:href="#8" y="8.684"/><use xlink:href="#19" y="10.855"/><use xlink:href="#20" y="13.026"/><use xlink:href="#21" y="15.197"/><use xlink:href="#22" y="17.368"/><use xlink:href="#23" y="19.539"/><use xlink:href="#24" y="23.881"/><use xlink:href="#25" y="26.052"/><use xlink:href="#1" y="28.223"/></svg><svg x="10500"><use xlink:href="#a"/><use xlink:href="#b" x="-.004" y="30.369"/><use xlink:href="#1"/><use xlink:href="#5" y="2.171"/><use xlink:href="#6" y="4.342"/><use xlink:href="#7" y="6.513"/><use xlink:href="#8" y="8.684"/><use xlink:href="#19" y="10.855"/><use xlink:href="#20" y="13.026"/><use xlink:href="#21" y="15.197"/><use xlink:href="#22" y="17.368"/><use xlink:href="#23" y="19.539"/><use xlink:href="#24" y="23.881"/><use xlink:href="#25" y="26.052"/><use xlink:href="#1" y="28.223"/></svg><svg x="10600"><use xlink:href="#a"/><use xlink:href="#b" x="13.996" y="30.369"/><use xlink:href="#1"/><use xlink:href="#5" y="2.171"/><use xlink:href="#6" y="4.342"/><use xlink:href="#7" y="6.513"/><use xlink:href="#8" y="8.684"/><use xlink:href="#19" y="10.855"/><use xlink:href="#20" y="13.026"/><use xlink:href="#21" y="15.197"/><use xlink:href="#22" y="17.368"/><use xlink:href="#23" y="19.539"/><use xlink:href="#24" y="23.881"/><use xlink:href="#25" y="26.052"/><use xlink:href="#1" y="28.223"/><use xlink:href="#2" y="30.394"/></svg><svg x="10700"><use xlink:href="#a"/><use xlink:href="#b" x="13.996" y="30.369"/><use xlink:href="#1"/><use xlink:href="#5" y="2.171"/><use xlink:href="#6" y="4.342"/><use xlink:href="#7" y="6.513"/><use xlink:href="#8" y="8.684"/><use xlink:href="#19" y="10.855"/><use xlink:href="#20" y="13.026"/><use xlink:href="#21" y="15.197"/><use xlink:href="#22" y="17.368"/><use xlink:href="#23" y="19.539"/><use xlink:href="#24" y="23.881"/><use xlink:href="#25" y="26.052"/><use xlink:href="#1" y="28.223"/><use xlink:href="#2" y="30.394"/></svg><svg x="10800"><use xlink:href="#a"/><use xlink:href="#b" x="-.004" y="30.369"/><use xlink:href="#5"/><use xlink:href="#6" y="2.171"/><use xlink:href="#7" y="4.342"/><use xlink:href="#8" y="6.513"/><use xlink:href="#19" y="8.684"/><use xlink:href="#20" y="10.855"/><use xlink:href="#21" y="13.026"/><use xlink:href="#22" y="15.197"/><use xlink:href="#23" y="17.368"/><use xlink:href="#24" y="21.71"/><use xlink:href="#25" y="23.881"/><use xlink:href="#1" y="26.052"/><use xlink:href="#2" y="28.223"/></svg></svg></g></g></svg></svg>