<svg xmlns="http://www.w3.org/2000/svg" xmlns:xlink="http://www.w3.org/1999/xlink" width="840" height="211.97"><rect width="840" height="211.97" rx="5" ry="5" class="a"/><svg y="0%" x="0%"><circle cx="20" cy="20" r="6" fill="#ff5f58"/><circle cx="40" cy="20" r="6" fill="#ffbd2e"/><circle cx="60" cy="20" r="6" fill="#18c132"/></svg><svg height="151.97" viewBox="0 0 80 15.197" width="800" x="15" xmlns="http://www.w3.org/2000/svg" xmlns:xlink="http://www.w3.org/1999/xlink" y="50"><style>@keyframes m{0%{transform:translateX(0)}19.8%{transform:translateX(-160px)}20.1%{transform:translateX(-400px)}37.2%{transform:translateX(-480px)}39.7%{transform:translateX(-560px)}43%{transform:translateX(-640px)}44.7%{transform:translateX(-720px)}46.6%{transform:translateX(-800px)}49.2%{transform:translateX(-880px)}53.3%{transform:translateX(-960px)}54.7%{transform:translateX(-1040px)}56.4%{transform:translateX(-1120px)}58.6%{transform:translateX(-1200px)}60.4%{transform:translateX(-1280px)}62.1%{transform:translateX(-1360px)}63.5%{transform:translateX(-1440px)}65.4%{transform:translateX(-1520px)}67.8%{transform:translateX(-1680px)}68%{transform:translateX(-1840px)}68.8%{transform:translateX(-1920px)}69%{transform:translateX(-2320px)}69.4%{transform:translateX(-2480px)}to{transform:translateX(-2560px)}}.a{fill:#282d35}.h{fill:#a8cc8c;font-weight:700}.h,.i,.j{white-space:pre}.i{fill:#66c2cd;font-weight:700}.j{fill:#b9c0cb}</style><g font-family="Monaco,Consolas,Menlo,'Bitstream Vera Sans Mono','Powerline Symbols',monospace" font-size="1.67"><defs><symbol id="1"><path fill="#b9c0cb" d="M0 0h1v2.171H0z"/><text y="1.67" style="white-space:pre" fill="#282d35" font-weight="700">%</text></symbol><symbol id="2"><text y="1.67" class="h">➜</text><text x="3.006" y="1.67" class="i">playground</text></symbol><symbol id="3"><text y="1.67" class="h">➜</text><text x="3.006" y="1.67" class="i">playground</text><text x="14.028" y="1.67" class="j">pyenv</text></symbol><symbol id="4"><text y="1.67" class="h">➜</text><text x="3.006" y="1.67" class="i">playground</text><text x="14.028" y="1.67" class="j">pyenv</text><text x="20.04" y="1.67" class="j">versions</text></symbol><symbol id="5"><text x="2.004" y="1.67" class="j">system</text></symbol><symbol id="6"><text y="1.67" class="j">*</text><text x="2.004" y="1.67" class="j">3.6.6</text><text x="8.016" y="1.67" class="j">(set</text><text x="13.026" y="1.67" class="j">by</text><text x="16.032" y="1.67" class="j">PYENV_VERSION</text><text x="30.06" y="1.67" class="j">environment</text><text x="42.084" y="1.67" class="j">variable)</text></symbol><symbol id="7"><text x="2.004" y="1.67" class="j">3.6.8</text></symbol><symbol id="8"><text x="2.004" y="1.67" class="j">3.7.5</text></symbol><symbol id="a"><path fill="transparent" d="M0 0h80v8H0z"/></symbol><symbol id="b"><path fill="#6f7683" d="M0 0h1.102v2.171H0z"/></symbol></defs><path class="a" d="M0 0h80v15.197H0z"/><g style="animation-duration:7.232921s;animation-iteration-count:infinite;animation-name:m;animation-timing-function:steps(1,end)"><svg width="2640"><svg><use xlink:href="#a"/><use xlink:href="#b" x="-.004"/></svg><svg x="80"><use xlink:href="#a"/><use xlink:href="#b" x="-.004" y="2.146"/><use xlink:href="#1"/></svg><svg x="160"><use xlink:href="#a"/><use xlink:href="#b" x="-.004" y="2.146"/><use xlink:href="#1"/></svg><svg x="240"><use xlink:href="#a"/><use xlink:href="#b" x="13.996" y="2.146"/><use xlink:href="#1"/><use xlink:href="#2" y="2.171"/></svg><svg x="320"><use xlink:href="#a"/><use xlink:href="#b" x="13.996" y="2.146"/><use xlink:href="#1"/><use xlink:href="#2" y="2.171"/></svg><svg x="400"><use xlink:href="#a"/><use xlink:href="#b" x="13.996" y="2.146"/><use xlink:href="#1"/><use xlink:href="#2" y="2.171"/></svg><svg x="480"><use xlink:href="#a"/><use xlink:href="#b" x="14.996" y="2.146"/><use xlink:href="#1"/><text y="3.841" class="h">➜</text><text x="3.006" y="3.841" class="i">playground</text><text x="14.028" y="3.841" class="j">p</text></svg><svg x="560"><use xlink:href="#a"/><use xlink:href="#b" x="15.996" y="2.146"/><use xlink:href="#1"/><text y="3.841" class="h">➜</text><text x="3.006" y="3.841" class="i">playground</text><text x="14.028" y="3.841" class="j">py</text></svg><svg x="640"><use xlink:href="#a"/><use xlink:href="#b" x="16.996" y="2.146"/><use xlink:href="#1"/><text y="3.841" class="h">➜</text><text x="3.006" y="3.841" class="i">playground</text><text x="14.028" y="3.841" class="j">pye</text></svg><svg x="720"><use xlink:href="#a"/><use xlink:href="#b" x="17.996" y="2.146"/><use xlink:href="#1"/><text y="3.841" class="h">➜</text><text x="3.006" y="3.841" class="i">playground</text><text x="14.028" y="3.841" class="j">pyen</text></svg><svg x="800"><use xlink:href="#a"/><use xlink:href="#b" x="18.996" y="2.146"/><use xlink:href="#1"/><use xlink:href="#3" y="2.171"/></svg><svg x="880"><use xlink:href="#a"/><use xlink:href="#b" x="19.996" y="2.146"/><use xlink:href="#1"/><use xlink:href="#3" y="2.171"/></svg><svg x="960"><use xlink:href="#a"/><use xlink:href="#b" x="20.996" y="2.146"/><use xlink:href="#1"/><text y="3.841" class="h">➜</text><text x="3.006" y="3.841" class="i">playground</text><text x="14.028" y="3.841" class="j">pyenv</text><text x="20.04" y="3.841" class="j">v</text></svg><svg x="1040"><use xlink:href="#a"/><use xlink:href="#b" x="21.996" y="2.146"/><use xlink:href="#1"/><text y="3.841" class="h">➜</text><text x="3.006" y="3.841" class="i">playground</text><text x="14.028" y="3.841" class="j">pyenv</text><text x="20.04" y="3.841" class="j">ve</text></svg><svg x="1120"><use xlink:href="#a"/><use xlink:href="#b" x="22.996" y="2.146"/><use xlink:href="#1"/><text y="3.841" class="h">➜</text><text x="3.006" y="3.841" class="i">playground</text><text x="14.028" y="3.841" class="j">pyenv</text><text x="20.04" y="3.841" class="j">ver</text></svg><svg x="1200"><use xlink:href="#a"/><use xlink:href="#b" x="23.996" y="2.146"/><use xlink:href="#1"/><text y="3.841" class="h">➜</text><text x="3.006" y="3.841" class="i">playground</text><text x="14.028" y="3.841" class="j">pyenv</text><text x="20.04" y="3.841" class="j">vers</text></svg><svg x="1280"><use xlink:href="#a"/><use xlink:href="#b" x="24.996" y="2.146"/><use xlink:href="#1"/><text y="3.841" class="h">➜</text><text x="3.006" y="3.841" class="i">playground</text><text x="14.028" y="3.841" class="j">pyenv</text><text x="20.04" y="3.841" class="j">versi</text></svg><svg x="1360"><use xlink:href="#a"/><use xlink:href="#b" x="25.996" y="2.146"/><use xlink:href="#1"/><text y="3.841" class="h">➜</text><text x="3.006" y="3.841" class="i">playground</text><text x="14.028" y="3.841" class="j">pyenv</text><text x="20.04" y="3.841" class="j">versio</text></svg><svg x="1440"><use xlink:href="#a"/><use xlink:href="#b" x="26.996" y="2.146"/><use xlink:href="#1"/><text y="3.841" class="h">➜</text><text x="3.006" y="3.841" class="i">playground</text><text x="14.028" y="3.841" class="j">pyenv</text><text x="20.04" y="3.841" class="j">version</text></svg><svg x="1520"><use xlink:href="#a"/><use xlink:href="#b" x="27.996" y="2.146"/><use xlink:href="#1"/><use xlink:href="#4" y="2.171"/></svg><svg x="1600"><use xlink:href="#a"/><use xlink:href="#b" x="27.996" y="2.146"/><use xlink:href="#1"/><use xlink:href="#4" y="2.171"/></svg><svg x="1680"><use xlink:href="#a"/><use xlink:href="#b" x="-.004" y="4.317"/><use xlink:href="#1"/><use xlink:href="#4" y="2.171"/></svg><svg x="1760"><use xlink:href="#a"/><use xlink:href="#b" x="-.004" y="4.317"/><use xlink:href="#1"/><use xlink:href="#4" y="2.171"/></svg><svg x="1840"><use xlink:href="#a"/><use xlink:href="#b" x="-.004" y="4.317"/><use xlink:href="#1"/><use xlink:href="#4" y="2.171"/></svg><svg x="1920"><use xlink:href="#a"/><use xlink:href="#b" x="-.004" y="6.488"/><use xlink:href="#1"/><use xlink:href="#4" y="2.171"/><use xlink:href="#5" y="4.342"/></svg><svg x="2000"><use xlink:href="#a"/><use xlink:href="#b" x="-.004" y="8.659"/><use xlink:href="#1"/><use xlink:href="#4" y="2.171"/><use xlink:href="#5" y="4.342"/><use xlink:href="#6" y="6.513"/></svg><svg x="2080"><use xlink:href="#a"/><use xlink:href="#b" x="-.004" y="10.83"/><use xlink:href="#1"/><use xlink:href="#4" y="2.171"/><use xlink:href="#5" y="4.342"/><use xlink:href="#6" y="6.513"/><use xlink:href="#7" y="8.684"/></svg><svg x="2160"><use xlink:href="#a"/><use xlink:href="#b" x="-.004" y="13.001"/><use xlink:href="#1"/><use xlink:href="#4" y="2.171"/><use xlink:href="#5" y="4.342"/><use xlink:href="#6" y="6.513"/><use xlink:href="#7" y="8.684"/><use xlink:href="#8" y="10.855"/></svg><svg x="2240"><use xlink:href="#a"/><use xlink:href="#b" x="-.004" y="15.172"/><use xlink:href="#1"/><use xlink:href="#4" y="2.171"/><use xlink:href="#5" y="4.342"/><use xlink:href="#6" y="6.513"/><use xlink:href="#7" y="8.684"/><use xlink:href="#8" y="10.855"/><use xlink:href="#1" y="13.026"/></svg><svg x="2320"><use xlink:href="#a"/><use xlink:href="#b" x="-.004" y="15.172"/><use xlink:href="#1"/><use xlink:href="#4" y="2.171"/><use xlink:href="#5" y="4.342"/><use xlink:href="#6" y="6.513"/><use xlink:href="#7" y="8.684"/><use xlink:href="#8" y="10.855"/><use xlink:href="#1" y="13.026"/></svg><svg x="2400"><use xlink:href="#a"/><use xlink:href="#b" x="13.996" y="15.172"/><use xlink:href="#1"/><use xlink:href="#4" y="2.171"/><use xlink:href="#5" y="4.342"/><use xlink:href="#6" y="6.513"/><use xlink:href="#7" y="8.684"/><use xlink:href="#8" y="10.855"/><use xlink:href="#1" y="13.026"/><use xlink:href="#2" y="15.197"/></svg><svg x="2480"><use xlink:href="#a"/><use xlink:href="#b" x="13.996" y="15.172"/><use xlink:href="#1"/><use xlink:href="#4" y="2.171"/><use xlink:href="#5" y="4.342"/><use xlink:href="#6" y="6.513"/><use xlink:href="#7" y="8.684"/><use xlink:href="#8" y="10.855"/><use xlink:href="#1" y="13.026"/><use xlink:href="#2" y="15.197"/></svg><svg x="2560"><use xlink:href="#a"/><use xlink:href="#b" x="-.004" y="15.172"/><use xlink:href="#4"/><use xlink:href="#5" y="2.171"/><use xlink:href="#6" y="4.342"/><use xlink:href="#7" y="6.513"/><use xlink:href="#8" y="8.684"/><use xlink:href="#1" y="10.855"/><use xlink:href="#2" y="13.026"/></svg></svg></g></g></svg></svg>